<svg version="1.1" id="Layer_1" xmlns="http://www.w3.org/2000/svg" xmlns:xlink="http://www.w3.org/1999/xlink" x="0px" y="0px"
	 width="100%" viewBox="0 0 486 157" enable-background="new 0 0 486 157" xml:space="preserve">
<path fill="#FEFEFE" opacity="1.000000" stroke="none" 
	d="
M310.000000,158.000000 
	C208.000031,158.000000 106.500046,157.977844 5.000219,158.095505 
	C1.576375,158.099472 0.892641,157.425385 0.902417,153.999832 
	C1.044632,104.166924 1.033381,54.333405 0.916877,4.500360 
	C0.909904,1.517892 1.517601,0.917258 4.499878,0.918968 
	C164.166443,1.010565 323.833038,1.010546 483.499603,0.919081 
	C486.480499,0.917373 487.090210,1.515968 487.083252,4.499853 
	C486.966705,54.499565 486.966766,104.499695 487.083069,154.499405 
	C487.089996,157.481232 486.484039,158.088623 483.500244,158.082840 
	C425.833649,157.971008 368.166809,158.000000 310.000000,158.000000 
z"/>
<path fill="#080808" opacity="1.000000" stroke="none" 
	d="
M323.642822,99.560638 
	C325.874481,99.555847 327.786346,99.286537 329.492706,99.759094 
	C332.929199,100.710762 335.072540,100.808990 336.141632,96.337158 
	C336.941437,92.991707 339.931091,95.814072 341.914734,95.918297 
	C344.529968,96.055702 343.902527,98.234146 343.016479,99.062233 
	C338.815399,102.988586 339.741608,107.036324 341.039825,112.047485 
	C342.567535,117.944588 338.570465,122.979416 332.569153,124.878616 
	C329.856445,125.737083 327.047241,125.993752 324.188690,125.866661 
	C322.372711,125.785927 320.107635,125.620750 320.142456,128.256332 
	C320.174103,130.651138 322.307587,130.849380 324.182281,130.965256 
	C327.995789,131.200958 331.848145,131.148743 335.616974,131.687531 
	C341.610016,132.544281 344.480713,135.306046 345.167969,140.195053 
	C346.003296,146.137878 344.023804,150.703110 338.782227,152.976761 
	C330.331268,156.642609 321.628937,156.425247 313.071289,153.188919 
	C309.508423,151.841553 307.515900,148.947754 307.392029,145.108307 
	C307.234100,140.214401 310.726990,138.259598 314.798981,136.956329 
	C309.476257,130.823532 309.990692,127.974594 317.199463,123.535103 
	C311.989319,119.695839 309.734436,114.745964 311.679718,108.395531 
	C313.414764,102.731407 317.723694,100.370956 323.642822,99.560638 
z"/>
<path fill="#060606" opacity="1.000000" stroke="none" 
	d="
M422.908813,97.805626 
	C411.825195,91.856361 404.082458,97.460823 404.327759,111.346268 
	C407.433014,108.182167 410.312225,105.323807 414.784607,104.950699 
	C423.842987,104.195007 430.562134,108.817627 432.019592,117.098335 
	C433.925262,127.925583 429.315521,136.514145 420.304291,138.925446 
	C407.989838,142.220673 397.866730,136.431183 394.850220,124.042747 
	C392.848083,115.820160 392.872955,107.504456 396.049622,99.533554 
	C400.899017,87.365280 417.191925,82.446449 427.347198,89.993217 
	C428.465393,90.824181 431.146942,91.899475 429.302032,93.607849 
	C427.519287,95.258636 427.765472,100.210709 422.908813,97.805626 
z"/>
<path fill="#064EAF" opacity="1.000000" stroke="none" 
	d="
M441.455994,127.145912 
	C440.076233,117.211090 441.852509,108.160439 446.105469,99.660027 
	C451.037231,89.803001 460.588806,85.206001 471.422974,87.071274 
	C478.376923,88.268509 483.238251,93.598412 483.908386,101.296593 
	C484.751587,110.982925 482.805573,120.185486 477.923553,128.615662 
	C473.314056,136.575348 465.987335,139.931488 457.033783,139.766937 
	C448.703796,139.613831 444.116516,135.826294 441.455994,127.145912 
z"/>
<path fill="#132539" opacity="1.000000" stroke="none" 
	d="
M41.910904,116.345680 
	C40.255539,116.345673 39.088913,116.345634 37.922287,116.345764 
	C30.746738,116.346542 30.746737,116.346550 30.746483,123.373001 
	C30.746231,130.401413 30.746231,130.401428 37.876171,130.401886 
	C42.542671,130.402191 47.222557,130.622162 51.871792,130.339005 
	C56.237255,130.073120 54.959179,133.033905 55.205235,135.294479 
	C55.483009,137.846466 55.017361,139.177292 51.868111,139.104019 
	C42.540161,138.886948 33.201542,138.908234 23.872286,139.095215 
	C20.894451,139.154892 20.304724,138.060272 20.324734,135.361343 
	C20.433464,120.695999 20.445786,106.028824 20.318502,91.363785 
	C20.292807,88.403206 21.006182,87.258682 24.194059,87.330650 
	C33.189163,87.533752 42.198971,87.612953 51.188316,87.308212 
	C55.327801,87.167885 54.635605,89.570107 54.828323,92.065079 
	C55.051571,94.955292 54.404995,96.274811 51.089005,96.105881 
	C45.437214,95.817947 39.756477,96.145866 34.095303,95.972855 
	C31.552427,95.895149 30.715847,96.546753 30.668261,99.249397 
	C30.514093,108.005562 30.381327,108.003235 39.072498,108.003242 
	C41.905731,108.003250 44.756073,108.198189 47.567657,107.951477 
	C50.728909,107.674088 51.881420,108.563110 51.879486,111.991226 
	C51.877510,115.487930 50.902702,116.849487 47.394470,116.383041 
	C45.756824,116.165306 44.066238,116.345749 41.910904,116.345680 
z"/>
<path fill="#080808" opacity="1.000000" stroke="none" 
	d="
M363.692383,95.254555 
	C361.240936,96.070122 359.080231,96.864159 357.885132,98.724258 
	C355.811310,101.952042 354.695160,100.142334 352.826843,98.417885 
	C349.557495,95.400322 350.375183,93.377769 353.563660,91.099762 
	C360.884491,85.869362 368.699402,85.639481 376.804382,88.634964 
	C384.411194,91.446304 387.374786,103.990265 376.837128,110.775063 
	C384.948303,114.609337 387.508667,120.885887 385.074890,129.172592 
	C384.661133,130.581299 384.013458,131.993820 383.172302,133.193039 
	C376.139984,143.218399 355.010162,141.527740 349.688202,130.537491 
	C348.697510,128.491638 347.107117,126.120682 350.777618,125.121353 
	C353.216187,124.457428 355.800079,120.417679 358.154327,125.886009 
	C360.296875,130.862625 366.333130,132.344208 371.446381,130.234589 
	C374.542450,128.957199 375.640472,126.475906 375.657562,123.509613 
	C375.674683,120.534645 374.578888,118.031914 371.492645,116.750275 
	C369.718811,116.013649 367.864380,116.317230 366.118530,115.920517 
	C363.544403,115.335602 359.281738,118.452728 359.170959,112.115227 
	C359.062958,105.933464 363.119781,108.283676 365.844910,108.052666 
	C368.818420,107.800591 371.493073,107.307549 372.979980,104.403168 
	C374.131317,102.154106 374.076599,99.783745 372.666138,97.736694 
	C370.560608,94.681007 367.301270,94.840050 363.692383,95.254555 
z"/>
<path fill="#0B0B0B" opacity="1.000000" stroke="none" 
	d="
M103.044090,121.854713 
	C101.222137,121.854721 99.869698,121.705742 98.565842,121.893730 
	C97.053024,122.111855 94.930603,120.815300 94.137016,122.767860 
	C93.424103,124.521919 94.579933,126.354790 95.590729,127.863853 
	C98.571251,132.313583 106.570541,132.889511 110.520958,128.469040 
	C114.077347,124.489487 115.788986,128.598450 117.764313,129.788269 
	C120.788620,131.609970 117.619751,133.276382 116.657379,134.405243 
	C110.152496,142.035446 94.711639,141.472260 88.076950,133.529999 
	C82.855255,127.279190 82.224197,114.977051 86.748146,107.625389 
	C90.924118,100.839195 99.242668,97.892075 108.262604,100.003174 
	C116.322487,101.889572 122.108421,112.302094 119.554909,120.077728 
	C118.885353,122.116577 117.468529,121.845718 116.012787,121.850060 
	C111.853584,121.862473 107.694321,121.854599 103.044090,121.854713 
z"/>
<path fill="#080808" opacity="1.000000" stroke="none" 
	d="
M125.987152,131.904083 
	C124.732674,122.971016 127.203506,119.156029 135.524063,116.923843 
	C138.569260,116.106888 141.706711,115.629242 144.742050,114.781837 
	C146.570251,114.271446 148.070740,113.168457 147.951218,110.900719 
	C147.815750,108.330605 145.934006,107.569740 143.881287,107.317619 
	C139.670578,106.800476 136.025253,108.323860 132.849411,110.974556 
	C131.541138,112.066513 130.304993,112.963593 129.395508,110.841866 
	C128.598175,108.981773 125.388527,107.753113 127.714790,104.966324 
	C132.556534,99.166084 147.332886,97.436340 153.251251,102.043564 
	C155.908279,104.111946 157.205719,106.957039 157.286804,110.278442 
	C157.424866,115.933746 157.429138,121.592209 157.518127,127.248886 
	C157.549866,129.265945 157.451996,131.085007 160.470520,131.382812 
	C163.716721,131.703094 161.981094,134.832062 162.475586,136.619843 
	C163.028107,138.617432 161.077606,138.895432 159.561386,139.050781 
	C154.984604,139.519714 150.746078,139.203094 148.999924,133.796921 
	C140.432068,142.531937 130.877563,141.769073 125.987152,131.904083 
z"/>
<path fill="#070707" opacity="1.000000" stroke="none" 
	d="
M221.374680,108.176651 
	C213.133865,107.357567 210.002060,109.697922 209.499527,117.383873 
	C209.108841,123.359398 209.007996,129.400757 209.426926,135.367310 
	C209.753922,140.024384 206.866791,138.878464 204.400986,139.022308 
	C201.619293,139.184570 199.406738,139.447174 199.556274,135.182877 
	C199.906525,125.195213 199.685455,115.186882 199.657181,105.187019 
	C199.649246,102.383385 198.945969,99.722427 203.661438,99.900612 
	C207.705826,100.053436 210.145157,100.478569 208.463608,106.984703 
	C213.354797,100.633690 218.398651,98.515305 224.767868,99.696014 
	C230.047287,100.674698 233.199600,103.766472 233.942215,108.862213 
	C235.293381,118.133606 234.638351,127.507812 234.418732,136.819336 
	C234.316223,141.166122 230.271698,138.322769 228.107224,138.936447 
	C226.199081,139.477432 224.681488,139.107956 224.766144,136.275208 
	C224.970169,129.448044 224.848206,122.610542 224.820831,115.777351 
	C224.809296,112.896774 224.607269,110.056534 221.374680,108.176651 
z"/>
<path fill="#070707" opacity="1.000000" stroke="none" 
	d="
M266.060181,133.865051 
	C266.060181,124.052467 265.945679,114.724548 266.154907,105.403908 
	C266.197723,103.495056 264.097626,99.794350 268.825714,100.096497 
	C272.082642,100.304626 277.262939,97.964684 274.858704,107.002663 
	C279.595032,101.176865 283.888794,98.880486 289.416443,99.446732 
	C296.604126,100.183044 300.548370,103.940826 300.862854,111.446198 
	C301.211121,119.758575 300.888397,128.096954 301.074890,136.419144 
	C301.164429,140.414078 298.289337,139.074234 296.627197,138.885803 
	C294.691101,138.666321 291.161285,140.994049 291.175385,136.338531 
	C291.195557,129.677643 291.204407,123.016502 291.170502,116.355713 
	C291.137787,109.925201 289.840759,108.032043 285.412018,107.763443 
	C280.102753,107.441437 276.503448,110.316704 276.142914,115.950890 
	C275.750153,122.088875 276.047455,128.268372 275.876831,134.425125 
	C275.835449,135.917816 276.964539,138.366104 274.916473,138.770813 
	C272.240723,139.299515 269.252777,139.166458 266.602570,138.504089 
	C265.347961,138.190521 266.283051,135.788849 266.060181,133.865051 
z"/>
<path fill="#0A0A0A" opacity="1.000000" stroke="none" 
	d="
M63.376358,85.678757 
	C65.931824,83.754524 68.638115,84.596344 71.225601,84.543922 
	C74.017982,84.487358 73.044472,86.828987 73.052361,88.239273 
	C73.121178,100.535606 73.062096,112.832603 73.114563,125.129089 
	C73.126755,127.985191 72.314415,131.115921 77.185097,131.482956 
	C79.666107,131.669907 78.598747,135.058578 79.020767,137.027466 
	C79.506760,139.294769 77.679039,139.357574 76.288399,139.638428 
	C68.716438,141.167648 63.500336,136.631973 63.323257,127.985390 
	C63.122555,118.185310 63.269062,108.378067 63.269089,98.573944 
	C63.269100,94.419708 63.280537,90.265480 63.376358,85.678757 
z"/>
<path fill="#080808" opacity="1.000000" stroke="none" 
	d="
M192.558472,106.504318 
	C192.283142,109.360390 190.795898,109.082268 188.965302,108.978951 
	C182.419006,108.609497 179.454391,111.185730 179.092773,117.881203 
	C178.779465,123.682121 178.618988,129.535339 179.041519,135.317917 
	C179.375153,139.883911 176.589203,139.041870 174.073502,138.992233 
	C171.676910,138.944946 168.801331,140.163956 168.952850,135.484879 
	C169.291580,125.025963 169.071411,114.548500 169.048630,104.078667 
	C169.043884,101.896927 168.655350,99.356369 172.125778,100.116776 
	C174.590088,100.656731 179.120926,97.691414 178.702896,103.672844 
	C178.672791,104.103645 178.923309,104.554054 179.232162,105.689453 
	C182.323822,100.262650 186.903076,98.679031 192.078888,100.357018 
	C194.912170,101.275574 192.472321,104.120003 192.558472,106.504318 
z"/>
<path fill="#080808" opacity="1.000000" stroke="none" 
	d="
M254.930878,108.075119 
	C254.930862,117.378372 254.620239,126.208611 255.056702,135.001770 
	C255.288773,139.677216 252.690933,138.929306 249.887711,139.059784 
	C246.736359,139.206421 244.761612,139.130341 244.931992,134.790344 
	C245.329636,124.660591 245.312836,114.495209 244.937958,104.363724 
	C244.781143,100.125793 246.595673,99.961060 249.860413,99.980034 
	C253.233521,99.999641 255.835510,100.130608 254.958405,104.598389 
	C254.769775,105.559265 254.930878,106.588791 254.930878,108.075119 
z"/>
<path fill="#203245" opacity="1.000000" stroke="none" 
	d="
M267.769348,58.969574 
	C267.865326,59.638000 267.716522,59.971107 267.296204,60.376823 
	C267.115967,60.900017 267.315033,61.294270 267.931061,61.794258 
	C269.474335,62.258434 269.505219,62.983242 268.467590,63.416504 
	C265.090790,64.826508 264.744354,66.127457 268.410828,67.563057 
	C269.141296,67.849068 269.476868,68.357910 268.822815,68.944466 
	C268.506622,69.228043 267.890839,69.177528 267.026123,69.336502 
	C266.378510,69.439049 266.115509,69.483391 265.458893,69.459961 
	C264.657257,69.054474 264.337128,68.648087 263.862671,67.882187 
	C262.563385,66.228996 261.348724,65.050949 259.459229,65.390938 
	C252.955658,66.561142 246.336349,66.213486 239.783676,66.923370 
	C244.685760,67.860733 249.588730,67.862503 254.489731,67.180458 
	C257.289948,66.790771 260.071289,66.279091 263.190796,67.414101 
	C263.712921,67.804916 263.902924,67.990097 264.258209,68.945740 
	C264.267853,69.937553 264.112274,70.158897 263.614746,70.595863 
	C255.579865,71.702438 247.833069,72.003372 240.134354,73.057907 
	C248.146286,74.439392 256.158844,71.367462 264.548157,73.118706 
	C265.376923,73.614319 265.777954,74.002922 266.295929,74.828148 
	C266.404510,75.545349 266.263550,75.885147 266.319794,76.188332 
	C267.311523,81.532928 264.955475,83.876015 259.391174,83.627213 
	C253.702774,84.958893 248.278549,84.578491 242.415665,83.712242 
	C241.149811,84.572227 240.294022,84.567535 238.957153,83.326721 
	C238.171951,79.736488 240.770401,79.849144 242.814774,79.713882 
	C247.455460,79.406860 252.115433,79.688446 256.763733,79.557121 
	C258.458130,79.509254 260.456055,80.157074 261.707275,78.155205 
	C260.655121,76.312195 259.045563,77.340080 257.712128,77.290955 
	C252.379333,77.094452 247.143585,78.382004 241.827148,78.403137 
	C239.098419,78.413986 237.879852,79.728958 237.790710,82.726456 
	C235.765747,82.920547 234.569717,81.969032 234.974991,79.900375 
	C235.463943,77.404640 233.296478,77.734406 231.924011,77.002686 
	C232.511124,75.169922 239.286880,73.482697 232.245163,71.480713 
	C232.110916,71.442558 232.119110,70.903473 232.060852,70.598106 
	C237.176697,69.762901 232.939087,65.481766 234.772308,62.955544 
	C234.685791,61.969952 234.578949,61.433464 234.641510,60.500710 
	C245.327637,63.664394 255.656509,62.148716 266.299744,58.595016 
	C266.977448,58.550373 267.251007,58.592312 267.769348,58.969574 
z"/>
<path fill="#29372A" opacity="1.000000" stroke="none" 
	d="
M248.872726,2.338704 
	C252.566391,2.759587 255.879379,3.291721 259.563446,3.952106 
	C260.103363,5.084312 259.442780,5.515141 258.306824,6.000633 
	C255.949585,6.449400 253.957657,6.319888 251.972977,6.326609 
	C233.449081,6.389335 221.960464,18.904449 223.555435,37.304436 
	C223.626907,38.128998 223.756332,38.948559 223.669281,40.176529 
	C223.295044,41.393368 222.694458,41.887695 221.467484,42.057381 
	C219.884125,39.945217 220.074921,37.622929 219.644928,34.993099 
	C218.876495,25.945482 220.557877,18.224592 226.853394,11.678147 
	C232.855698,5.436601 239.783142,2.022261 248.872726,2.338704 
z"/>
<path fill="#FBFCFC" opacity="1.000000" stroke="none" 
	d="
M237.814804,83.080780 
	C238.813568,82.066055 237.699509,81.534576 237.324768,80.688454 
	C236.325653,78.432587 236.771484,77.111832 239.739273,76.987732 
	C246.847549,76.690514 253.946121,76.126030 261.041412,75.576523 
	C263.093719,75.417587 264.425476,75.424812 264.474915,78.192215 
	C264.524353,80.962234 263.153687,81.002937 261.117554,80.978554 
	C254.821823,80.903152 248.523117,80.879204 242.229034,81.006676 
	C240.778519,81.036041 238.848709,79.956146 238.197693,82.620743 
	C238.303177,83.071358 238.107544,83.059715 237.814804,83.080780 
z"/>
<path fill="#D5C919" opacity="1.000000" stroke="none" 
	d="
M248.783600,2.129024 
	C242.343323,3.393227 235.733658,5.224373 230.360123,10.124222 
	C223.380249,16.488817 219.500290,24.196697 219.678070,34.175896 
	C215.111938,14.965451 230.428207,-0.337650 248.783600,2.129024 
z"/>
<path fill="#090909" opacity="1.000000" stroke="none" 
	d="
M255.294281,86.803925 
	C255.874283,89.695175 256.498383,92.206360 253.866867,94.132118 
	C251.634796,95.765541 249.131790,95.851303 246.843323,94.643578 
	C244.159973,93.227455 243.625076,90.645119 244.186523,87.387268 
	C244.039551,86.160400 244.241226,85.421127 245.041397,84.514984 
	C248.463104,82.998131 251.551682,83.446144 254.945969,84.631653 
	C255.508102,85.380768 255.582748,85.900948 255.294281,86.803925 
z"/>
<path fill="#27384A" opacity="1.000000" stroke="none" 
	d="
M274.689514,15.033681 
	C283.498291,25.461061 283.717865,39.254807 275.341492,51.927841 
	C274.537201,51.967003 274.123535,51.680241 273.695740,50.885902 
	C273.588196,50.021122 273.550201,49.475269 273.788849,49.053288 
	C279.805359,38.413914 279.161835,27.819950 273.596039,16.865421 
	C273.667511,15.955826 273.919861,15.522512 274.689514,15.033681 
z"/>
<path fill="#2D3E4F" opacity="1.000000" stroke="none" 
	d="
M233.260040,59.039299 
	C229.557770,56.399082 226.464035,53.374378 224.084808,49.305382 
	C224.389420,48.626877 224.805374,48.399632 225.652435,48.312111 
	C229.416595,50.584301 232.044571,53.585285 234.304779,57.338013 
	C234.221222,58.176517 233.965027,58.575081 233.260040,59.039299 
z"/>
<path fill="#F4F5F6" opacity="1.000000" stroke="none" 
	d="
M255.347137,85.327728 
	C251.925308,84.333519 248.890930,83.266106 245.481689,85.264442 
	C243.827133,85.827553 242.862686,85.399017 242.064148,83.896942 
	C242.006714,83.467644 241.984039,83.462532 241.983124,83.480911 
	C247.399811,82.216629 252.883011,83.090141 258.715698,83.309708 
	C259.094421,83.617607 259.038208,83.538277 259.018524,83.493835 
	C258.580902,85.199409 257.136047,85.314766 255.347137,85.327728 
z"/>
<path fill="#3C4C5B" opacity="1.000000" stroke="none" 
	d="
M257.688110,5.463313 
	C258.281036,4.968669 258.918701,4.796234 259.745422,4.352078 
	C263.272278,4.686014 266.030273,6.498432 268.959137,8.624086 
	C269.036652,9.353971 268.829895,9.729602 268.211975,10.189142 
	C266.561310,10.537084 265.441406,9.836446 263.978333,9.223465 
	C263.507507,9.005478 263.321533,8.915037 262.859314,8.688006 
	C262.023163,8.291862 261.454071,8.055610 260.561798,7.777949 
	C259.251526,7.271290 258.293304,6.793427 257.688110,5.463313 
z"/>
<path fill="#17293D" opacity="1.000000" stroke="none" 
	d="
M267.895874,10.381184 
	C268.203857,9.736858 268.419769,9.447642 268.887360,9.038514 
	C271.452026,10.259830 273.201813,12.200432 274.939911,14.577097 
	C274.860992,15.171792 274.674164,15.457711 274.259918,15.866685 
	C270.457916,16.015104 269.450928,12.996226 267.895874,10.381184 
z"/>
<path fill="#203245" opacity="1.000000" stroke="none" 
	d="
M273.638123,50.883457 
	C274.269012,51.210426 274.544312,51.422909 274.934052,51.874409 
	C273.588074,54.730331 271.187683,56.450558 268.765442,58.618118 
	C268.286102,58.680275 268.081512,58.536407 267.686859,58.068626 
	C267.621704,53.923496 270.259430,52.186420 273.638123,50.883457 
z"/>
<path fill="#27362F" opacity="1.000000" stroke="none" 
	d="
M226.138031,48.794525 
	C225.464447,48.993015 225.055542,48.990070 224.339951,48.977211 
	C222.540970,47.115543 221.840256,44.885971 221.054245,42.342312 
	C221.434418,41.758095 221.803375,41.534023 222.327759,41.156300 
	C224.635651,41.047638 224.199219,43.285179 225.418259,44.553391 
	C225.698761,45.035633 225.807861,45.230343 226.068787,45.723782 
	C226.306046,46.229195 226.391525,46.435879 226.556137,46.968693 
	C226.658783,47.745667 226.586990,48.179447 226.138031,48.794525 
z"/>
<path fill="#293A4C" opacity="1.000000" stroke="none" 
	d="
M255.015610,85.487366 
	C256.102509,84.733437 257.245697,84.311279 258.693848,83.669258 
	C260.835297,83.602692 260.091095,84.602234 259.388947,85.118881 
	C258.311676,85.911499 257.031799,86.428802 255.472382,87.112190 
	C255.095200,86.714005 255.083557,86.266571 255.015610,85.487366 
z"/>
<path fill="#293A4C" opacity="1.000000" stroke="none" 
	d="
M241.538025,83.388771 
	C242.822098,83.983582 243.637466,84.499519 244.777603,85.187531 
	C244.926193,85.816238 244.750046,86.272873 244.358856,86.854752 
	C243.068588,85.798866 239.621689,86.604492 241.538025,83.388771 
z"/>
<path fill="#293A4C" opacity="1.000000" stroke="none" 
	d="
M233.025375,59.479431 
	C233.138626,58.862904 233.354874,58.551727 233.826202,58.107712 
	C234.961868,57.790970 235.288147,58.286171 235.266769,59.363125 
	C235.073303,60.304356 235.009567,60.930843 234.891327,62.027496 
	C234.267349,61.593369 233.697861,60.689075 233.025375,59.479431 
z"/>
<path fill="#203245" opacity="1.000000" stroke="none" 
	d="
M265.905090,69.791504 
	C266.231506,70.707489 266.238464,71.434494 266.266724,72.524391 
	C266.066803,73.069542 265.845581,73.251801 265.193970,73.440926 
	C263.439911,72.919914 263.195526,71.918861 263.786591,70.307205 
	C264.032104,69.955215 264.102112,69.906662 264.135315,69.879990 
	C264.611176,69.601952 265.084961,69.526360 265.905090,69.791504 
z"/>
<path fill="#203245" opacity="1.000000" stroke="none" 
	d="
M266.783752,73.473373 
	C267.942505,73.157745 269.106995,72.858360 269.218719,74.261749 
	C269.287292,75.122566 268.366425,74.922287 267.402618,75.032486 
	C266.649841,74.667206 266.513336,74.240295 266.783752,73.473373 
z"/>
<path fill="#293A4C" opacity="1.000000" stroke="none" 
	d="
M266.851196,73.062607 
	C266.999176,73.602211 266.992096,74.007568 266.991943,74.716919 
	C266.998901,75.020920 266.774353,75.251686 266.614014,75.237137 
	C265.952026,74.770729 265.450378,74.318863 264.691711,73.427147 
	C264.624695,73.142731 264.814728,73.298180 264.703735,73.241508 
	C264.717377,73.011658 265.032013,72.993927 265.817322,72.931747 
	C266.287994,72.887291 266.696167,72.928352 266.851196,73.062607 
z"/>
<path fill="#203245" opacity="1.000000" stroke="none" 
	d="
M233.882629,65.514381 
	C232.952454,66.021477 232.320190,65.932510 232.174316,65.229698 
	C232.118774,64.962097 232.500916,64.417023 232.801132,64.300003 
	C233.482437,64.034431 233.877930,64.548492 233.882629,65.514381 
z"/>
<path fill="#293A4C" opacity="1.000000" stroke="none" 
	d="
M266.387207,69.875648 
	C265.765259,69.973824 265.306000,69.967155 264.507629,69.906906 
	C264.163666,69.507782 264.158813,69.162231 264.180664,68.299004 
	C264.384705,68.002396 264.562042,68.223480 264.388123,68.205017 
	C264.462830,68.218430 264.888733,68.471390 265.978088,69.059532 
	C266.641541,69.394714 266.549896,69.770798 266.387207,69.875648 
z"/>
<path fill="#203245" opacity="1.000000" stroke="none" 
	d="
M268.247559,58.482384 
	C268.490662,58.824142 268.191559,59.164803 268.102844,59.234848 
	C267.778625,59.220531 267.543152,59.136169 266.985779,58.859032 
	C266.645081,58.310116 266.765930,58.010269 267.239380,57.637917 
	C267.636383,57.719627 267.820404,57.930130 268.247559,58.482384 
z"/>
<path fill="#293A4C" opacity="1.000000" stroke="none" 
	d="
M267.915680,61.819725 
	C267.868958,61.689106 267.514191,61.413254 267.092041,60.793419 
	C267.218994,60.857784 267.413300,61.266136 267.915680,61.819725 
z"/>
<path fill="#F5F5F5" opacity="1.000000" stroke="none" 
	d="
M324.850769,139.367035 
	C327.422089,139.544769 329.564514,139.731476 331.710999,139.830902 
	C333.750610,139.925369 335.321075,140.718460 335.658264,142.833908 
	C335.944824,144.631683 334.935730,145.958130 333.449097,146.938904 
	C330.657410,148.780670 321.859009,148.780304 319.024292,146.978836 
	C317.280518,145.870667 316.603149,144.359451 316.940216,142.351700 
	C317.274445,140.360764 318.808228,139.686142 320.475281,139.405701 
	C321.758881,139.189774 323.105225,139.346725 324.850769,139.367035 
z"/>
<path fill="#F4F4F4" opacity="1.000000" stroke="none" 
	d="
M321.806061,117.224045 
	C321.124542,115.684944 320.448090,114.468842 320.317383,113.196663 
	C319.903534,109.168564 322.480957,106.223656 326.229004,106.198570 
	C330.081055,106.172791 332.390167,108.871490 332.159058,113.129097 
	C331.936371,117.230934 329.265442,119.512184 325.199158,118.880157 
	C324.109009,118.710701 323.104645,117.989365 321.806061,117.224045 
z"/>
<path fill="#F7F7F7" opacity="1.000000" stroke="none" 
	d="
M421.949341,124.472572 
	C419.250336,130.647675 414.701263,132.596268 409.606354,130.144897 
	C405.536346,128.186646 403.798553,122.694809 405.813934,118.159958 
	C407.773651,113.750366 412.945435,111.877411 417.536438,113.998749 
	C421.931763,116.029686 422.352936,119.892845 421.949341,124.472572 
z"/>
<path fill="#FBFCFE" opacity="1.000000" stroke="none" 
	d="
M451.020355,121.736496 
	C451.117767,115.065758 452.484314,109.103439 455.121368,103.462891 
	C456.631744,100.232162 458.755005,97.442955 462.217438,96.093597 
	C467.813507,93.912689 473.120422,96.642250 473.721954,102.547256 
	C474.586975,111.038887 472.680389,119.129250 467.945862,126.305397 
	C465.461121,130.071503 461.612030,131.810684 457.099121,130.837524 
	C452.605103,129.868439 451.327637,126.273537 451.020355,121.736496 
z"/>
<path fill="#F6F6F6" opacity="1.000000" stroke="none" 
	d="
M95.562241,115.390854 
	C92.929741,112.307907 95.506859,110.457024 97.193642,108.882713 
	C99.851707,106.401901 103.209114,106.346184 106.488792,107.862946 
	C108.834404,108.947731 109.755753,111.019859 110.032059,113.465309 
	C110.269684,115.568253 108.810623,115.417847 107.465149,115.418480 
	C103.644775,115.420280 99.824394,115.417061 95.562241,115.390854 
z"/>
<path fill="#F6F6F6" opacity="1.000000" stroke="none" 
	d="
M138.756226,122.467041 
	C141.983734,121.599518 144.857361,120.904884 147.910553,120.166840 
	C148.302658,124.140762 148.889740,128.283112 145.087006,130.978897 
	C142.176468,133.042206 138.528625,133.507736 136.169830,130.370270 
	C133.948074,127.415062 134.772614,124.390274 138.756226,122.467041 
z"/>
<path fill="#FBFBF9" opacity="1.000000" stroke="none" 
	d="
M267.642578,57.238876 
	C267.156372,57.666702 266.935425,57.896458 266.726746,58.432320 
	C265.327393,61.073112 263.585205,62.184002 260.534790,62.226475 
	C253.978409,62.317764 247.405396,62.863468 240.891632,63.654793 
	C237.766861,64.034401 236.255173,63.114536 235.427246,59.929321 
	C234.938568,59.199097 234.740067,58.720325 234.311432,58.108215 
	C231.498352,55.147518 228.915421,52.320160 226.102905,49.244385 
	C225.698776,48.566696 225.524231,48.137428 225.564392,47.429108 
	C228.031723,45.381378 229.479477,47.425163 231.047562,48.372330 
	C247.279404,58.176926 265.846405,49.951931 269.229340,31.316851 
	C270.421967,24.747311 268.346588,18.822056 264.790924,13.347013 
	C263.817047,11.847425 262.201721,10.653126 262.798340,8.221650 
	C264.825134,7.730828 265.956696,9.045909 267.651917,9.942837 
	C269.820831,11.889801 271.653748,13.753520 273.759583,15.803489 
	C281.170929,27.400671 281.920624,38.839344 274.087616,50.656410 
	C271.940063,52.988171 269.886444,54.978397 267.642578,57.238876 
z"/>
<path fill="#F4F5F6" opacity="1.000000" stroke="none" 
	d="
M264.409485,72.714180 
	C264.402710,73.029381 264.486664,73.062492 264.460693,73.024887 
	C256.118683,74.493210 247.674850,74.489632 239.283539,75.102081 
	C238.145035,75.185181 236.923767,75.336662 236.880371,73.518188 
	C236.827866,71.319038 238.230225,71.282776 239.828003,71.192398 
	C247.591141,70.753242 255.350952,70.255051 263.572021,69.866486 
	C264.160156,70.769806 264.288208,71.584389 264.409485,72.714180 
z"/>
<path fill="#EFF0F1" opacity="1.000000" stroke="none" 
	d="
M264.260406,67.382881 
	C256.297974,68.236160 248.368408,68.784195 240.434021,69.250450 
	C239.137497,69.326645 237.240417,70.346375 236.923477,67.910828 
	C236.576767,65.246605 238.630997,65.622314 240.222290,65.509750 
	C247.321960,65.007545 254.428482,64.588402 261.519531,63.986317 
	C264.056671,63.770897 264.879578,64.659241 264.260406,67.382881 
z"/>
<path fill="#FEFEFE" opacity="1.000000" stroke="none" 
	d="
M264.063141,67.960495 
	C264.036926,67.965469 264.216461,67.970200 264.211914,67.875763 
	C264.207336,67.781319 264.228424,67.772194 264.228790,67.743782 
	C264.229156,67.715370 264.157562,67.756027 264.193604,67.778183 
	C264.229675,67.800346 264.089355,67.955528 264.063141,67.960495 
z"/>
<path fill="#DFD00C" opacity="1.000000" stroke="none" 
	d="
M263.005127,7.939364 
	C265.272858,12.745029 269.140350,16.658312 270.240112,22.219675 
	C272.438232,33.335194 268.239594,43.717579 258.369476,50.143066 
	C249.746719,55.756523 238.039703,55.236557 229.353607,48.867233 
	C228.421158,48.183487 227.441895,47.563610 226.131714,47.032082 
	C225.779099,47.150059 225.835861,47.071812 225.881958,47.086327 
	C225.764053,46.790691 225.561234,46.508408 225.178864,46.032898 
	C224.037018,44.554974 222.879593,43.381481 222.645355,41.315933 
	C217.537811,19.310503 235.210434,1.262995 257.206696,5.124460 
	C258.512604,5.628104 259.381836,6.115097 260.486969,6.786443 
	C261.266418,7.337403 261.881226,7.509940 262.788452,7.799400 
	C263.061371,7.969383 262.993927,7.971284 263.005127,7.939364 
z"/>
<path fill="#FBFBF9" opacity="1.000000" stroke="none" 
	d="
M262.952637,7.621827 
	C262.277557,8.515890 261.730164,7.959043 260.935974,7.265222 
	C261.429871,7.071956 262.136902,7.173113 262.952637,7.621827 
z"/>
<path fill="#FBFBF9" opacity="1.000000" stroke="none" 
	d="
M224.955383,46.177551 
	C225.372986,46.039921 225.708008,46.267937 225.985550,46.798397 
	C225.351196,47.340954 224.998840,47.156193 224.955383,46.177551 
z"/>
</svg>